# xmcd
#
# Track frame offsets:
#	150
#	17407
#	34389
#	49342
#	64984
#	81659
#	98345
#	111962
#	128947
#	142220
#	157782
#	173739
#	185875
#	201210
#	215265
#	230134
#	246590
#	260118
#	275794
#
# Disc length: 3906 seconds
# Revision: 0
# Processed by: cddbd v1.5.2PL0 Copyright (c) Steve Scherf et al.
# Submitted via: dBpowerAMP V12.0
#
DISCID=2d0f4013
DTITLE=Various Artist - Country Radio October 2010
DYEAR=2010
DGENRE=Country
TTITLE0=Jason Aldean - My Kinda Party
TTITLE1=Codie Prevost - Rolling Back To You
TTITLE2=Shane Yellowbird - I Get That A Lot These Days
TTITLE3=Doc Walker - From Here
TTITLE4=Zac Brown Band - As She's Walking Away
TTITLE5=Carolyn Dawn Johnson - The Whole Thing
TTITLE6=Crystal Shawanda - Beautiful Day
TTITLE7=Luke Bryan - Someone Else Calling You Baby
TTITLE8=Higgins The - Burn You Back
TTITLE9=Dierks Bentley - Draw Me A Map
TTITLE10=Sunny Sweeney - From A Table Away
TTITLE11=Janedear Girls The - Wildflower
TTITLE12=Clay Walker - Where Do I Go From You
TTITLE13=Frankie Ballard - Tell Me You Get Lonely
TTITLE14=Blake Wise - Cornfields
TTITLE15=Randy Rogers Band The - Too Late For Goodbye
TTITLE16=Great Big Sea - Nothing But A Song
TTITLE17=James Wesley - Real
TTITLE18=Victoria Banks Feat Jason Blaine - Don't Leave The Leavin
EXTD=
EXTT0=
EXTT1=
EXTT2=
EXTT3=
EXTT4=
EXTT5=
EXTT6=
EXTT7=
EXTT8=
EXTT9=
EXTT10=
EXTT11=
EXTT12=
EXTT13=
EXTT14=
EXTT15=
EXTT16=
EXTT17=
EXTT18=
PLAYORDER=
